{"title":"Final Storm-AC3-XviD-DVDRip 2010 TBS","uid":6194264,"size":1566902107,"categoryP":"video","categoryS":"movies","magnet":"?xt=urn:btih:22a5303a2dc64f52357c41fecf23b6384e65cbb9&amp;dn=Final+Storm-AC3-XviD-DVDRip+2010+TBS&amp;tr=udp%3A%2F%2Ftracker.openbittorrent.com%3A80&amp;tr=udp%3A%2F%2Fopen.demonii.com%3A1337&amp;tr=udp%3A%2F%2Ftracker.coppersurfer.tk%3A6969&amp;tr=udp%3A%2F%2Fexodus.desync.com%3A6969","seeders":0,"leechers":1,"uploader":"FatFreddy30","files":-1,"time":1298404986,"description":"A stranger named Silas flees from a devastating storm and finds refuge with Tom and Gillian on their farm. While struggling with the Storm, Silas seems to be the only one who can help Tom and Gillian to find their son but there are other more dangerous forces out there, that are waiting for the three...\n &lt;a href=&quot;\nhttp://www.imdb.com/title/tt1331329/&quot; rel=&quot;nofollow&quot; target=&quot;_NEW&quot;&gt;\nhttp://www.imdb.com/title/tt1331329/&lt;/a&gt;\n\nSubs: Dutch (srt).\n\nEen vreemdeling, genaamd Silas, vlucht van een allesvernietigende storm. Silas vindt vervolgens onderkomen in de boerderij van Tom en Gillian. Silas lijkt de enige te zijn die Tom en Gillian kan helpen hun zoon te zoeken. Maar naast de grote storm zijn er nog meer uiterst gevaarlijke krachten aan het werk..\n &lt;a href=&quot;\nhttp://www.moviemeter.nl/film/61433&quot; rel=&quot;nofollow&quot; target=&quot;_NEW&quot;&gt;\nhttp://www.moviemeter.nl/film/61433&lt;/a&gt;\n\nOndertitels: Nederlands (srt).\n\nGeneral\nComplete name                    : Final Storm-AC3-XviD-DVDRip 2010 TBS\\Final Storm-AC3-XviD-DVDRip 2010 TBS.avi\nFormat                           : AVI\nFormat/Info                      : Audio Video Interleave\nFile size                        : 1.46 GiB\nDuration                         : 1h 28mn\nOverall bit rate                 : 2 370 Kbps\nWriting application              : VirtualDubMod 1.5.4.1 (build 2178/release)\nWriting library                  : VirtualDubMod build 2178/release\n\nVideo\nID                               : 0\nFormat                           : MPEG-4 Visual\nFormat profile                   : Simple@L3\nFormat settings, BVOP            : No\nFormat settings, QPel            : No\nFormat settings, GMC             : No warppoints\nFormat settings, Matrix          : Default (H.263)\nCodec ID                         : XVID\nCodec ID/Hint                    : XviD\nDuration                         : 1h 28mn\nBit rate                         : 1 976 Kbps\nWidth                            : 720 pixels\nHeight                           : 400 pixels\nDisplay aspect ratio             : 16:9\nFrame rate                       : 25.000 fps\nResolution                       : 8 bits\nColorimetry                      : 4:2:0\nScan type                        : Progressive\nBits/(Pixel*Frame)               : 0.274\nStream size                      : 1.22 GiB (83%)\nWriting library                  : XviD 1.1.2 (UTC 2006-11-01)\n\nAudio\nID                               : 1\nFormat                           : AC-3\nFormat/Info                      : Audio Coding 3\nCodec ID                         : 2000\nDuration                         : 1h 28mn\nBit rate mode                    : Constant\nBit rate                         : 384 Kbps\nChannel(s)                       : 6 channels\nChannel positions                : Front: L C R, Surround: L R, LFE\nSampling rate                    : 48.0 KHz\nStream size                      : 242 MiB (16%)\nAlignment                        : Split accross interleaves\nInterleave, duration             : 40 ms (1.00 video frame)\nInterleave, preload duration     : 500 ms\n\nThanks to BOB1961 &amp;  SwingNow.\n\nTBS.","torrent":{"xt":"urn:btih:22a5303a2dc64f52357c41fecf23b6384e65cbb9","amp;dn":"Final+Storm-AC3-XviD-DVDRip+2010+TBS","amp;tr":["udp%3A%2F%2Ftracker.openbittorrent.com%3A80","udp%3A%2F%2Fopen.demonii.com%3A1337","udp%3A%2F%2Ftracker.coppersurfer.tk%3A6969","udp%3A%2F%2Fexodus.desync.com%3A6969"],"infoHash":"22a5303a2dc64f52357c41fecf23b6384e65cbb9","infoHashBuffer":{"type":"Buffer","data":[34,165,48,58,45,198,79,82,53,124,65,254,207,35,182,56,78,101,203,185]},"announce":[],"urlList":[]}}